<svg xmlns="http://www.w3.org/2000/svg" viewBox="0 0 512 512">
  <defs>
    <linearGradient id="bg" x1="0%" y1="0%" x2="100%" y2="100%">
      <stop offset="0%" style="stop-color:#0a0a1a"/>
      <stop offset="100%" style="stop-color:#1a1a3a"/>
    </linearGradient>
    <linearGradient id="glow" x1="0%" y1="0%" x2="100%" y2="100%">
      <stop offset="0%" style="stop-color:#7c3aed"/>
      <stop offset="100%" style="stop-color:#9333ea"/>
    </linearGradient>
  </defs>
  <!-- Background -->
  <rect width="512" height="512" rx="80" fill="url(#bg)"/>
  <!-- Outer ring -->
  <circle cx="256" cy="256" r="180" fill="none" stroke="url(#glow)" stroke-width="12" opacity="0.6"/>
  <!-- Inner design - stylized "S" for Solo/Shadow -->
  <path d="M320 160 C320 160, 280 160, 256 180 C220 208, 200 240, 200 280 C200 320, 230 352, 280 352 C310 352, 340 340, 340 340" 
        fill="none" stroke="#ffd700" stroke-width="24" stroke-linecap="round"/>
  <path d="M192 352 C192 352, 232 352, 256 332 C292 304, 312 272, 312 232 C312 192, 282 160, 232 160 C202 160, 172 172, 172 172" 
        fill="none" stroke="#ffd700" stroke-width="24" stroke-linecap="round"/>
  <!-- Level indicator dots -->
  <circle cx="256" cy="420" r="12" fill="#7c3aed"/>
  <circle cx="296" cy="410" r="8" fill="#7c3aed" opacity="0.7"/>
  <circle cx="216" cy="410" r="8" fill="#7c3aed" opacity="0.7"/>
</svg>